abc1.ufo
<glyph name="percent" format="2">
  <advance width="750"/>
  <unicode hex="0025"/>
  <outline>
    <contour>
      <point x="180" y="710" type="curve" smooth="yes"/>
      <point x="78" y="710"/>
      <point x="30" y="635"/>
      <point x="30" y="527" type="curve" smooth="yes"/>
      <point x="30" y="413"/>
      <point x="89" y="346"/>
      <point x="184" y="346" type="curve" smooth="yes"/>
      <point x="290" y="346"/>
      <point x="331" y="432"/>
      <point x="331" y="529" type="curve" smooth="yes"/>
      <point x="331" y="631"/>
      <point x="277" y="710"/>
    </contour>
    <contour>
      <point x="161" y="0" type="line"/>
      <point x="187" y="0" type="line"/>
      <point x="601" y="700" type="line"/>
      <point x="568" y="700" type="line"/>
      <point x="442" y="485" type="line"/>
    </contour>
    <contour>
      <point x="58" y="539" type="curve" smooth="yes"/>
      <point x="58" y="612"/>
      <point x="89" y="689"/>
      <point x="180" y="689" type="curve" smooth="yes"/>
      <point x="237" y="689"/>
      <point x="305" y="643"/>
      <point x="305" y="529" type="curve" smooth="yes"/>
      <point x="305" y="441"/>
      <point x="267" y="370"/>
      <point x="185" y="370" type="curve" smooth="yes"/>
      <point x="66" y="374"/>
      <point x="58" y="491"/>
    </contour>
    <contour>
      <point x="569" y="347" type="curve" smooth="yes"/>
      <point x="464" y="347"/>
      <point x="416" y="272"/>
      <point x="416" y="165" type="curve" smooth="yes"/>
      <point x="416" y="50"/>
      <point x="479" y="-15"/>
      <point x="573" y="-15" type="curve" smooth="yes"/>
      <point x="675" y="-15"/>
      <point x="720" y="68"/>
      <point x="720" y="165" type="curve" smooth="yes"/>
      <point x="720" y="267"/>
      <point x="667" y="347"/>
    </contour>
    <contour>
      <point x="446" y="174" type="curve" smooth="yes"/>
      <point x="446" y="247"/>
      <point x="476" y="328"/>
      <point x="569" y="328" type="curve" smooth="yes"/>
      <point x="625" y="328"/>
      <point x="691" y="279"/>
      <point x="691" y="165" type="curve" smooth="yes"/>
      <point x="691" y="77"/>
      <point x="655" y="6"/>
      <point x="572" y="6" type="curve" smooth="yes"/>
      <point x="454" y="9"/>
      <point x="446" y="124"/>
    </contour>
  </outline>
</glyph>
<glyph name="slash" format="2">
  <advance width="477"/>
  <unicode hex="002F"/>
  <outline>
    <contour>
      <point x="47" y="-60" type="line"/>
      <point x="457" y="760" type="line"/>
      <point x="429" y="760" type="line"/>
      <point x="330" y="564"/>
      <point x="232" y="365"/>
      <point x="134" y="169" type="curve" smooth="yes"/>
      <point x="20" y="-59" type="line"/>
    </contour>
  </outline>
</glyph>
<glyph name="zero" format="2">
  <advance width="506"/>
  <unicode hex="0030"/>
  <outline>
    <contour>
      <point x="252" y="510" type="curve" smooth="yes"/>
      <point x="120" y="507"/>
      <point x="29" y="398"/>
      <point x="31" y="233" type="curve" smooth="yes"/>
      <point x="32" y="100"/>
      <point x="95" y="-30"/>
      <point x="249" y="-32" type="curve" smooth="yes"/>
      <point x="384" y="-34"/>
      <point x="473" y="73"/>
      <point x="475" y="241" type="curve" smooth="yes"/>
      <point x="476" y="404"/>
      <point x="383" y="512"/>
    </contour>
    <contour>
      <point x="60" y="237" type="curve" smooth="yes"/>
      <point x="59" y="313"/>
      <point x="89" y="488"/>
      <point x="255" y="488" type="curve" smooth="yes"/>
      <point x="367" y="488"/>
      <point x="447" y="396"/>
      <point x="447" y="238" type="curve" smooth="yes"/>
      <point x="448" y="106"/>
      <point x="382" y="-13"/>
      <point x="251" y="-11" type="curve" smooth="yes"/>
      <point x="96" y="-10"/>
      <point x="61" y="144"/>
    </contour>
  </outline>
</glyph>
<glyph name="five" format="2">
  <advance width="454"/>
  <unicode hex="0035"/>
  <outline>
    <contour>
      <point x="400" y="486" type="line"/>
      <point x="405" y="526"/>
      <point x="410" y="566"/>
      <point x="414" y="607" type="curve"/>
      <point x="398" y="606" type="line"/>
      <point x="396" y="591"/>
      <point x="387" y="553"/>
      <point x="381" y="536" type="curve" smooth="yes"/>
      <point x="373" y="514"/>
      <point x="369" y="510"/>
      <point x="346" y="510" type="curve" smooth="yes"/>
      <point x="177" y="503" type="line"/>
      <point x="98" y="216" type="line"/>
      <point x="105" y="216"/>
      <point x="112" y="216"/>
      <point x="119" y="216" type="curve" smooth="yes"/>
      <point x="307" y="216"/>
      <point x="383" y="114"/>
      <point x="383" y="-18" type="curve" smooth="yes"/>
      <point x="383" y="-199"/>
      <point x="248" y="-261"/>
      <point x="134" y="-261" type="curve" smooth="yes"/>
      <point x="95" y="-261"/>
      <point x="55" y="-254"/>
      <point x="20" y="-239" type="curve"/>
      <point x="20" y="-262" type="line"/>
      <point x="66" y="-277"/>
      <point x="107" y="-282"/>
      <point x="147" y="-282" type="curve" smooth="yes"/>
      <point x="309" y="-282"/>
      <point x="409" y="-158"/>
      <point x="409" y="-16" type="curve" smooth="yes"/>
      <point x="409" y="116"/>
      <point x="341" y="234"/>
      <point x="126" y="238" type="curve"/>
      <point x="197" y="480" type="line"/>
    </contour>
  </outline>
</glyph>
<glyph name="semicolon" format="2">
  <advance width="156"/>
  <unicode hex="003B"/>
  <outline>
    <contour>
      <point x="84" y="39" type="curve" smooth="yes"/>
      <point x="67" y="39"/>
      <point x="60" y="28"/>
      <point x="60" y="16" type="curve" smooth="yes"/>
      <point x="60" y="4"/>
      <point x="66" y="-5"/>
      <point x="80" y="-5" type="curve"/>
      <point x="74" y="-79"/>
      <point x="50" y="-130"/>
      <point x="50" y="-130" type="curve"/>
      <point x="62" y="-130" type="line"/>
      <point x="59" y="-130"/>
      <point x="106" y="-62"/>
      <point x="106" y="8" type="curve" smooth="yes"/>
      <point x="106" y="19"/>
      <point x="104" y="39"/>
    </contour>
    <contour>
      <point x="85" y="475" type="curve" smooth="yes"/>
      <point x="66" y="475"/>
      <point x="61" y="463"/>
      <point x="61" y="451" type="curve" smooth="yes"/>
      <point x="61" y="438"/>
      <point x="69" y="431"/>
      <point x="84" y="431" type="curve" smooth="yes"/>
      <point x="96" y="431"/>
      <point x="106" y="439"/>
      <point x="106" y="454" type="curve" smooth="yes"/>
      <point x="106" y="465"/>
      <point x="100" y="475"/>
    </contour>
  </outline>
</glyph>
<glyph name="greater" format="2">
  <advance width="438"/>
  <unicode hex="003E"/>
  <outline>
    <contour>
      <point x="396" y="224" type="line"/>
      <point x="398" y="246" type="line"/>
      <point x="281" y="323"/>
      <point x="160" y="401"/>
      <point x="40" y="482" type="curve"/>
      <point x="40" y="453" type="line"/>
      <point x="147" y="382"/>
      <point x="256" y="309"/>
      <point x="364" y="238" type="curve"/>
      <point x="313" y="202"/>
      <point x="262" y="167"/>
      <point x="208" y="130" type="curve" smooth="yes"/>
      <point x="49" y="21" type="line"/>
      <point x="49" y="-11" type="line"/>
      <point x="264" y="134" type="line"/>
    </contour>
  </outline>
</glyph>
<glyph name="at" format="2">
  <advance width="948"/>
  <unicode hex="0040"/>
  <outline>
    <contour>
      <point x="593" y="417" type="curve"/>
      <point x="593" y="417"/>
      <point x="557" y="502"/>
      <point x="457" y="502" type="curve" smooth="yes"/>
      <point x="357" y="502"/>
      <point x="284" y="422"/>
      <point x="284" y="299" type="curve" smooth="yes"/>
      <point x="284" y="192"/>
      <point x="331" y="91"/>
      <point x="469" y="91" type="curve" smooth="yes"/>
      <point x="576" y="91"/>
      <point x="603" y="178"/>
      <point x="603" y="177" type="curve" smooth="yes"/>
      <point x="603" y="175"/>
      <point x="622" y="74"/>
      <point x="743" y="74" type="curve" smooth="yes"/>
      <point x="824" y="74"/>
      <point x="898" y="107"/>
      <point x="898" y="360" type="curve" smooth="yes"/>
      <point x="898" y="594"/>
      <point x="745" y="730"/>
      <point x="495" y="730" type="curve" smooth="yes"/>
      <point x="223" y="730"/>
      <point x="50" y="539"/>
      <point x="50" y="269" type="curve" smooth="yes"/>
      <point x="50" y="-1"/>
      <point x="219" y="-148"/>
      <point x="447" y="-148" type="curve" smooth="yes"/>
      <point x="647" y="-148"/>
      <point x="714" y="-62"/>
      <point x="714" y="-62" type="curve"/>
      <point x="715" y="-29" type="line" smooth="yes"/>
      <point x="715" y="-28"/>
      <point x="640" y="-126"/>
      <point x="447" y="-126" type="curve" smooth="yes"/>
      <point x="185" y="-126"/>
      <point x="77" y="69"/>
      <point x="77" y="275" type="curve" smooth="yes"/>
      <point x="77" y="534"/>
      <point x="252" y="710"/>
      <point x="497" y="710" type="curve" smooth="yes"/>
      <point x="758" y="710"/>
      <point x="876" y="558"/>
      <point x="876" y="342" type="curve" smooth="yes"/>
      <point x="876" y="155"/>
      <point x="829" y="94"/>
      <point x="743" y="94" type="curve" smooth="yes"/>
      <point x="631" y="94"/>
      <point x="620" y="207"/>
      <point x="620" y="207" type="curve"/>
      <point x="620" y="297" type="line" smooth="yes"/>
      <point x="620" y="355"/>
      <point x="619" y="413"/>
      <point x="619" y="471" type="curve"/>
      <point x="632" y="471"/>
      <point x="645" y="472"/>
      <point x="659" y="472" type="curve" smooth="yes"/>
      <point x="693" y="472" type="line"/>
      <point x="693" y="493" type="line"/>
      <point x="678" y="493"/>
      <point x="659" y="492"/>
      <point x="643" y="492" type="curve" smooth="yes"/>
      <point x="594" y="492" type="line"/>
      <point x="593" y="467"/>
      <point x="594" y="442"/>
    </contour>
    <contour>
      <point x="593" y="206" type="line"/>
      <point x="591" y="202"/>
      <point x="571" y="110"/>
      <point x="471" y="110" type="curve" smooth="yes"/>
      <point x="354" y="110"/>
      <point x="312" y="195"/>
      <point x="312" y="298" type="curve" smooth="yes"/>
      <point x="315" y="404"/>
      <point x="372" y="481"/>
      <point x="458" y="481" type="curve" smooth="yes"/>
      <point x="553" y="481"/>
      <point x="590" y="381"/>
      <point x="590" y="378" type="curve" smooth="yes"/>
    </contour>
  </outline>
</glyph>
<glyph name="A" format="2">
  <advance width="680"/>
  <unicode hex="0041"/>
  <outline>
    <contour>
      <point x="313" y="732" type="line"/>
      <point x="295" y="687"/>
      <point x="257" y="576"/>
      <point x="217" y="458" type="curve" smooth="yes"/>
      <point x="139" y="225" type="line" smooth="yes"/>
      <point x="115" y="153"/>
      <point x="94" y="91"/>
      <point x="77" y="47" type="curve"/>
      <point x="70" y="34"/>
      <point x="59" y="26"/>
      <point x="44" y="26" type="curve" smooth="yes"/>
      <point x="-20" y="25" type="line"/>
      <point x="-20" y="0" type="line"/>
      <point x="187" y="-3" type="line"/>
      <point x="188" y="25" type="line"/>
      <point x="127" y="25" type="line"/>
      <point x="112" y="24"/>
      <point x="97" y="32"/>
      <point x="104" y="44" type="curve"/>
      <point x="104" y="44"/>
      <point x="142" y="151"/>
      <point x="150" y="184" type="curve"/>
      <point x="185" y="184" type="line" smooth="yes"/>
      <point x="243" y="184"/>
      <point x="369" y="185"/>
      <point x="447" y="186" type="curve" smooth="yes"/>
      <point x="482" y="186"/>
      <point x="510" y="187"/>
      <point x="523" y="187" type="curve"/>
      <point x="536" y="149" type="line"/>
      <point x="541" y="138"/>
      <point x="554" y="101"/>
      <point x="577" y="40" type="curve" smooth="yes"/>
      <point x="580" y="32"/>
      <point x="571" y="25"/>
      <point x="557" y="24" type="curve"/>
      <point x="475" y="24" type="line"/>
      <point x="475" y="-1" type="line"/>
      <point x="504" y="-1"/>
      <point x="564" y="-1"/>
      <point x="602" y="0" type="curve" smooth="yes"/>
      <point x="623" y="0"/>
      <point x="644" y="1"/>
      <point x="660" y="1" type="curve" smooth="yes"/>
      <point x="675" y="1"/>
      <point x="695" y="0"/>
      <point x="700" y="0" type="curve"/>
      <point x="700" y="25" type="line"/>
      <point x="687" y="25" type="line" smooth="yes"/>
      <point x="681" y="25"/>
      <point x="643" y="27"/>
      <point x="637" y="27" type="curve" smooth="yes"/>
      <point x="620" y="27"/>
      <point x="617" y="30"/>
      <point x="608" y="45" type="curve"/>
      <point x="336" y="733" type="line"/>
    </contour>
    <contour>
      <point x="508" y="217" type="line"/>
      <point x="486" y="216"/>
      <point x="195" y="213"/>
      <point x="161" y="213" type="curve"/>
      <point x="191" y="289"/>
      <point x="306" y="630"/>
      <point x="325" y="688" type="curve"/>
    </contour>
  </outline>
</glyph>
<glyph name="N" format="2">
  <advance width="706"/>
  <unicode hex="004E"/>
  <outline>
    <contour>
      <point x="569" y="50" type="line"/>
      <point x="362" y="367" type="line" smooth="yes"/>
      <point x="287" y="479"/>
      <point x="213" y="591"/>
      <point x="143" y="699" type="curve"/>
      <point x="20" y="701" type="line"/>
      <point x="20" y="678" type="line"/>
      <point x="62" y="678" type="line" smooth="yes"/>
      <point x="81" y="678"/>
      <point x="115" y="670"/>
      <point x="115" y="645" type="curve" smooth="yes"/>
      <point x="118" y="537"/>
      <point x="120" y="459"/>
      <point x="122" y="354" type="curve" smooth="yes"/>
      <point x="128" y="50" type="line"/>
      <point x="125" y="26"/>
      <point x="115" y="20"/>
      <point x="95" y="20" type="curve" smooth="yes"/>
      <point x="90" y="20"/>
      <point x="43" y="20"/>
      <point x="33" y="20" type="curve"/>
      <point x="31" y="0" type="line"/>
      <point x="104" y="0"/>
      <point x="182" y="0"/>
      <point x="256" y="-1" type="curve"/>
      <point x="255" y="1"/>
      <point x="255" y="4"/>
      <point x="255" y="9" type="curve" smooth="yes"/>
      <point x="255" y="21" type="line"/>
      <point x="208" y="21" type="line" smooth="yes"/>
      <point x="149" y="21"/>
      <point x="151" y="19"/>
      <point x="151" y="72" type="curve" smooth="yes"/>
      <point x="151" y="221"/>
      <point x="137" y="633"/>
      <point x="138" y="658" type="curve"/>
      <point x="343" y="345" type="line" smooth="yes"/>
      <point x="419" y="229"/>
      <point x="494" y="113"/>
      <point x="571" y="0" type="curve"/>
      <point x="593" y="0" type="line"/>
      <point x="591" y="57"/>
      <point x="591" y="117"/>
      <point x="590" y="175" type="curve" smooth="yes"/>
      <point x="587" y="342"/>
      <point x="583" y="489"/>
      <point x="582" y="655" type="curve" smooth="yes"/>
      <point x="582" y="661"/>
      <point x="587" y="685"/>
      <point x="615" y="685" type="curve" smooth="yes"/>
      <point x="641" y="685"/>
      <point x="685" y="685"/>
      <point x="685" y="685" type="curve"/>
      <point x="685" y="689"/>
      <point x="685" y="697"/>
      <point x="686" y="702" type="curve"/>
      <point x="459" y="700" type="line"/>
      <point x="459" y="680" type="line"/>
      <point x="477" y="680"/>
      <point x="531" y="679"/>
      <point x="532" y="679" type="curve"/>
      <point x="551" y="680"/>
      <point x="558" y="667"/>
      <point x="559" y="655" type="curve"/>
    </contour>
  </outline>
</glyph>
<glyph name="Z" format="2">
  <advance width="599"/>
  <unicode hex="005A"/>
  <outline>
    <contour>
      <point x="58" y="740" type="line"/>
      <point x="64" y="442" type="line"/>
      <point x="76" y="442" type="line" smooth="yes"/>
      <point x="79" y="442"/>
      <point x="85" y="443"/>
      <point x="89" y="443" type="curve"/>
      <point x="88" y="465"/>
      <point x="88" y="487"/>
      <point x="88" y="509" type="curve" smooth="yes"/>
      <point x="88" y="534"/>
      <point x="88" y="558"/>
      <point x="88" y="582" type="curve" smooth="yes"/>
      <point x="88" y="596"/>
      <point x="88" y="610"/>
      <point x="88" y="623" type="curve" smooth="yes"/>
      <point x="85" y="687" type="line"/>
      <point x="283" y="687"/>
      <point x="515" y="680"/>
      <point x="514" y="680" type="curve"/>
      <point x="359" y="456"/>
      <point x="223" y="260"/>
      <point x="85" y="59" type="curve" smooth="yes"/>
      <point x="40" y="-14" type="line"/>
      <point x="199" y="-14"/>
      <point x="387" y="-13"/>
      <point x="546" y="-13" type="curve"/>
      <point x="545" y="19"/>
      <point x="547" y="58"/>
      <point x="547" y="93" type="curve" smooth="yes"/>
      <point x="547" y="178" type="line"/>
      <point x="543" y="178"/>
      <point x="534" y="177"/>
      <point x="524" y="177" type="curve"/>
      <point x="520" y="67" type="line"/>
      <point x="520" y="20"/>
      <point x="502" y="4"/>
      <point x="485" y="7" type="curve"/>
      <point x="402" y="7"/>
      <point x="347" y="7"/>
      <point x="265" y="7" type="curve" smooth="yes"/>
      <point x="81" y="7" type="line"/>
      <point x="512" y="627" type="line"/>
      <point x="527" y="652"/>
      <point x="544" y="677"/>
      <point x="559" y="702" type="curve"/>
      <point x="448" y="702"/>
      <point x="291" y="705"/>
      <point x="161" y="708" type="curve" smooth="yes"/>
      <point x="79" y="710" type="line"/>
      <point x="75" y="740" type="line"/>
    </contour>
  </outline>
</glyph>
<glyph name="e" format="2">
  <advance width="611"/>
  <unicode hex="0065"/>
  <outline>
    <contour>
      <point x="20" y="710" type="line"/>
      <point x="20" y="689" type="line"/>
      <point x="41" y="689"/>
      <point x="78" y="687"/>
      <point x="78" y="688" type="curve"/>
      <point x="97" y="687"/>
      <point x="110" y="683"/>
      <point x="110" y="673" type="curve" smooth="yes"/>
      <point x="112" y="454"/>
      <point x="123" y="260"/>
      <point x="123" y="37" type="curve" smooth="yes"/>
      <point x="123" y="27"/>
      <point x="104" y="20"/>
      <point x="93" y="20" type="curve" smooth="yes"/>
      <point x="35" y="19" type="line"/>
      <point x="35" y="-3" type="line"/>
      <point x="61" y="-2"/>
      <point x="456" y="0"/>
      <point x="540" y="0" type="curve" smooth="yes"/>
      <point x="561" y="0" type="line"/>
      <point x="561" y="9"/>
      <point x="559" y="78"/>
      <point x="559" y="132" type="curve" smooth="yes"/>
      <point x="559" y="151"/>
      <point x="559" y="166"/>
      <point x="560" y="169" type="curve"/>
      <point x="551" y="170"/>
      <point x="544" y="170"/>
      <point x="535" y="170" type="curve"/>
      <point x="536" y="128"/>
      <point x="537" y="86"/>
      <point x="537" y="45" type="curve" smooth="yes"/>
      <point x="538" y="25"/>
      <point x="527" y="20"/>
      <point x="510" y="20" type="curve"/>
      <point x="510" y="20"/>
      <point x="473" y="20"/>
      <point x="432" y="20" type="curve" smooth="yes"/>
      <point x="425" y="20"/>
      <point x="417" y="20"/>
      <point x="409" y="20" type="curve" smooth="yes"/>
      <point x="152" y="20" type="line"/>
      <point x="149" y="125"/>
      <point x="147" y="230"/>
      <point x="147" y="329" type="curve" smooth="yes"/>
      <point x="147" y="340"/>
      <point x="148" y="351"/>
      <point x="148" y="362" type="curve"/>
      <point x="184" y="362" type="line" smooth="yes"/>
      <point x="251" y="362"/>
      <point x="354" y="360"/>
      <point x="376" y="360" type="curve"/>
      <point x="388" y="362"/>
      <point x="400" y="352"/>
      <point x="401" y="333" type="curve"/>
      <point x="400" y="263" type="line"/>
      <point x="420" y="264" type="line"/>
      <point x="418" y="342"/>
      <point x="416" y="423"/>
      <point x="416" y="501" type="curve"/>
      <point x="407" y="501" type="line" smooth="yes"/>
      <point x="403" y="501"/>
      <point x="400" y="502"/>
      <point x="397" y="502" type="curve"/>
      <point x="396" y="410" type="line"/>
      <point x="396" y="393"/>
      <point x="393" y="386"/>
      <point x="382" y="385" type="curve" smooth="yes"/>
      <point x="364" y="383"/>
      <point x="361" y="384"/>
      <point x="339" y="384" type="curve" smooth="yes"/>
      <point x="269" y="384" type="line" smooth="yes"/>
      <point x="228" y="384"/>
      <point x="186" y="384"/>
      <point x="145" y="385" type="curve"/>
      <point x="142" y="689" type="line"/>
      <point x="197" y="689" type="line" smooth="yes"/>
      <point x="285" y="689"/>
      <point x="391" y="687"/>
      <point x="480" y="687" type="curve" smooth="yes"/>
      <point x="510" y="687"/>
      <point x="520" y="686"/>
      <point x="520" y="660" type="curve"/>
      <point x="520" y="660"/>
      <point x="525" y="523"/>
      <point x="529" y="523" type="curve" smooth="yes"/>
      <point x="536" y="523"/>
      <point x="549" y="524"/>
      <point x="549" y="524" type="curve"/>
      <point x="549" y="524"/>
      <point x="548" y="656"/>
      <point x="548" y="711" type="curve"/>
      <point x="459" y="711"/>
      <point x="370" y="710"/>
      <point x="284" y="710" type="curve" smooth="yes"/>
    </contour>
  </outline>
</glyph>
<glyph name="u" format="2">
  <advance width="739"/>
  <unicode hex="0075"/>
  <outline>
    <contour>
      <point x="600" y="660" type="curve" smooth="yes"/>
      <point x="600" y="664"/>
      <point x="602" y="680"/>
      <point x="626" y="680" type="curve" smooth="yes"/>
      <point x="660" y="680"/>
      <point x="716" y="682"/>
      <point x="718" y="682" type="curve"/>
      <point x="718" y="687"/>
      <point x="718" y="699"/>
      <point x="719" y="704" type="curve"/>
      <point x="634" y="702"/>
      <point x="550" y="702"/>
      <point x="465" y="702" type="curve"/>
      <point x="467" y="680"/>
      <point x="466" y="680"/>
      <point x="466" y="680" type="curve"/>
      <point x="481" y="680"/>
      <point x="524" y="678"/>
      <point x="540" y="679" type="curve" smooth="yes"/>
      <point x="565" y="680"/>
      <point x="575" y="673"/>
      <point x="575" y="656" type="curve" smooth="yes"/>
      <point x="579" y="466"/>
      <point x="576" y="325"/>
      <point x="577" y="251" type="curve" smooth="yes"/>
      <point x="578" y="149"/>
      <point x="560" y="0"/>
      <point x="377" y="-4" type="curve"/>
      <point x="291" y="5"/>
      <point x="160" y="18"/>
      <point x="160" y="283" type="curve" smooth="yes"/>
      <point x="160" y="396" type="line" smooth="yes"/>
      <point x="160" y="447"/>
      <point x="159" y="507"/>
      <point x="159" y="560" type="curve" smooth="yes"/>
      <point x="159" y="608"/>
      <point x="160" y="619"/>
      <point x="160" y="650" type="curve" smooth="yes"/>
      <point x="160" y="670"/>
      <point x="170" y="680"/>
      <point x="205" y="681" type="curve" smooth="yes"/>
      <point x="238" y="682"/>
      <point x="278" y="683"/>
      <point x="280" y="683" type="curve"/>
      <point x="280" y="686"/>
      <point x="279" y="692"/>
      <point x="279" y="697" type="curve" smooth="yes"/>
      <point x="279" y="699"/>
      <point x="280" y="702"/>
      <point x="280" y="703" type="curve"/>
      <point x="238" y="702"/>
      <point x="192" y="702"/>
      <point x="148" y="702" type="curve" smooth="yes"/>
      <point x="20" y="702" type="line"/>
      <point x="20" y="695"/>
      <point x="21" y="687"/>
      <point x="21" y="680" type="curve"/>
      <point x="37" y="680"/>
      <point x="74" y="680"/>
      <point x="100" y="680" type="curve" smooth="yes"/>
      <point x="123" y="680"/>
      <point x="130" y="668"/>
      <point x="130" y="648" type="curve" smooth="yes"/>
      <point x="130" y="562"/>
      <point x="131" y="502"/>
      <point x="132" y="418" type="curve" smooth="yes"/>
      <point x="134" y="281" type="line" smooth="yes"/>
      <point x="134" y="92"/>
      <point x="195" y="-28"/>
      <point x="376" y="-29" type="curve" smooth="yes"/>
      <point x="550" y="-30"/>
      <point x="601" y="85"/>
      <point x="601" y="249" type="curve" smooth="yes"/>
      <point x="601" y="397"/>
      <point x="600" y="528"/>
    </contour>
  </outline>
</glyph>
<glyph name="copyright" format="2">
  <advance width="920"/>
  <unicode hex="00A9"/>
  <outline>
    <contour>
      <point x="494" y="728" type="curve" smooth="yes"/>
      <point x="492" y="728" type="line" smooth="yes"/>
      <point x="265" y="728"/>
      <point x="40" y="592"/>
      <point x="40" y="268" type="curve" smooth="yes"/>
      <point x="40" y="-13"/>
      <point x="259" y="-160"/>
      <point x="470" y="-160" type="curve" smooth="yes"/>
      <point x="763" y="-160"/>
      <point x="880" y="86"/>
      <point x="880" y="271" type="curve" smooth="yes"/>
      <point x="880" y="537"/>
      <point x="737" y="724"/>
    </contour>
    <contour>
      <point x="490" y="708" type="curve" smooth="yes"/>
      <point x="493" y="708" type="line" smooth="yes"/>
      <point x="778" y="699"/>
      <point x="853" y="436"/>
      <point x="853" y="269" type="curve" smooth="yes"/>
      <point x="853" y="33"/>
      <point x="688" y="-140"/>
      <point x="464" y="-140" type="curve" smooth="yes"/>
      <point x="283" y="-140"/>
      <point x="68" y="-1"/>
      <point x="68" y="250" type="curve" smooth="yes"/>
      <point x="68" y="521"/>
      <point x="214" y="708"/>
    </contour>
    <contour>
      <point x="493" y="80" type="curve" smooth="yes"/>
      <point x="351" y="80"/>
      <point x="307" y="216"/>
      <point x="307" y="288" type="curve" smooth="yes"/>
      <point x="310" y="373"/>
      <point x="377" y="473"/>
      <point x="499" y="473" type="curve" smooth="yes"/>
      <point x="531" y="473"/>
      <point x="566" y="465"/>
      <point x="607" y="447" type="curve"/>
      <point x="608" y="412"/>
      <point x="608" y="374"/>
      <point x="608" y="339" type="curve"/>
      <point x="627" y="339" type="line"/>
      <point x="627" y="463" type="line"/>
      <point x="588" y="483"/>
      <point x="545" y="494"/>
      <point x="503" y="494" type="curve" smooth="yes"/>
      <point x="389" y="494"/>
      <point x="280" y="421"/>
      <point x="280" y="284" type="curve" smooth="yes"/>
      <point x="280" y="161"/>
      <point x="357" y="59"/>
      <point x="490" y="59" type="curve" smooth="yes"/>
      <point x="578" y="59"/>
      <point x="616" y="109"/>
      <point x="619" y="112" type="curve"/>
      <point x="612" y="129" type="line"/>
      <point x="600" y="120"/>
      <point x="566" y="80"/>
    </contour>
  </outline>
</glyph>
<glyph name="degree" format="2">
  <advance width="331"/>
  <unicode hex="00B0"/>
  <outline>
    <contour>
      <point x="167" y="700" type="curve" smooth="yes"/>
      <point x="66" y="701"/>
      <point x="32" y="616"/>
      <point x="31" y="564" type="curve" smooth="yes"/>
      <point x="28" y="471"/>
      <point x="96" y="434"/>
      <point x="167" y="432" type="curve" smooth="yes"/>
      <point x="230" y="430"/>
      <point x="300" y="468"/>
      <point x="301" y="556" type="curve" smooth="yes"/>
      <point x="301" y="637"/>
      <point x="260" y="699"/>
    </contour>
    <contour>
      <point x="167" y="677" type="curve" smooth="yes"/>
      <point x="256" y="677"/>
      <point x="278" y="601"/>
      <point x="278" y="557" type="curve" smooth="yes"/>
      <point x="278" y="524"/>
      <point x="252" y="455"/>
      <point x="167" y="455" type="curve" smooth="yes"/>
      <point x="106" y="455"/>
      <point x="56" y="487"/>
      <point x="56" y="566" type="curve" smooth="yes"/>
      <point x="56" y="613"/>
      <point x="89" y="677"/>
    </contour>
  </outline>
</glyph>
<glyph name="guillemotright" format="2">
  <advance width="382"/>
  <unicode hex="00BB"/>
  <outline>
    <contour>
      <point x="216" y="470" type="curve"/>
      <point x="181" y="470" type="line"/>
      <point x="224" y="400"/>
      <point x="267" y="326"/>
      <point x="310" y="256" type="curve"/>
      <point x="267" y="188"/>
      <point x="223" y="119"/>
      <point x="182" y="49" type="curve"/>
      <point x="214" y="49" type="line"/>
      <point x="247" y="101"/>
      <point x="281" y="156"/>
      <point x="313" y="210" type="curve" smooth="yes"/>
      <point x="342" y="255" type="line"/>
      <point x="301" y="326"/>
      <point x="257" y="399"/>
    </contour>
    <contour>
      <point x="71" y="471" type="line"/>
      <point x="68" y="471"/>
      <point x="40" y="471"/>
      <point x="40" y="471" type="curve"/>
      <point x="168" y="258" type="line"/>
      <point x="126" y="188"/>
      <point x="82" y="121"/>
      <point x="41" y="50" type="curve"/>
      <point x="70" y="50" type="line"/>
      <point x="113" y="117"/>
      <point x="154" y="186"/>
      <point x="197" y="255" type="curve"/>
      <point x="178" y="290" type="line"/>
    </contour>
  </outline>
</glyph>
<glyph name="afii10036" format="2">
  <advance width="609"/>
  <unicode hex="0422"/>
  <outline>
    <contour>
      <point x="82" y="690" type="curve"/>
      <point x="86" y="689"/>
      <point x="286" y="690"/>
      <point x="290" y="689" type="curve"/>
      <point x="290" y="467"/>
      <point x="289" y="271"/>
      <point x="292" y="50" type="curve" smooth="yes"/>
      <point x="292" y="32"/>
      <point x="275" y="20"/>
      <point x="252" y="20" type="curve" smooth="yes"/>
      <point x="242" y="20"/>
      <point x="207" y="18"/>
      <point x="188" y="18" type="curve"/>
      <point x="188" y="9" type="line" smooth="yes"/>
      <point x="188" y="6"/>
      <point x="189" y="0"/>
      <point x="189" y="-2" type="curve"/>
      <point x="222" y="-2"/>
      <point x="425" y="0"/>
      <point x="435" y="0" type="curve"/>
      <point x="435" y="19" type="line"/>
      <point x="424" y="19"/>
      <point x="370" y="20"/>
      <point x="358" y="20" type="curve" smooth="yes"/>
      <point x="329" y="20"/>
      <point x="322" y="34"/>
      <point x="322" y="54" type="curve" smooth="yes"/>
      <point x="320" y="690" type="line"/>
      <point x="340" y="690"/>
      <point x="356" y="689"/>
      <point x="376" y="689" type="curve" smooth="yes"/>
      <point x="393" y="689"/>
      <point x="496" y="690"/>
      <point x="515" y="690" type="curve" smooth="yes"/>
      <point x="564" y="690"/>
      <point x="566" y="680"/>
      <point x="567" y="640" type="curve" smooth="yes"/>
      <point x="569" y="520" type="line"/>
      <point x="573" y="519"/>
      <point x="585" y="519"/>
      <point x="589" y="519" type="curve"/>
      <point x="589" y="583"/>
      <point x="588" y="646"/>
      <point x="588" y="710" type="curve"/>
      <point x="592" y="711"/>
      <point x="22" y="715"/>
      <point x="22" y="715" type="curve"/>
      <point x="22" y="651"/>
      <point x="21" y="588"/>
      <point x="20" y="524" type="curve"/>
      <point x="42" y="525" type="line"/>
      <point x="46" y="640" type="line" smooth="yes"/>
      <point x="46" y="686"/>
      <point x="62" y="690"/>
    </contour>
  </outline>
</glyph>
<glyph name="afii10045" format="2">
  <advance width="837"/>
  <unicode hex="042B"/>
  <outline>
    <contour>
      <point x="169" y="692" type="curve" smooth="yes"/>
      <point x="196" y="692"/>
      <point x="247" y="692"/>
      <point x="249" y="692" type="curve"/>
      <point x="249" y="696"/>
      <point x="249" y="710"/>
      <point x="249" y="714" type="curve"/>
      <point x="247" y="714"/>
      <point x="187" y="713"/>
      <point x="134" y="713" type="curve" smooth="yes"/>
      <point x="20" y="713" type="line"/>
      <point x="20" y="694" type="line"/>
      <point x="78" y="694" type="line" smooth="yes"/>
      <point x="97" y="694"/>
      <point x="117" y="687"/>
      <point x="118" y="662" type="curve" smooth="yes"/>
      <point x="119" y="74" type="line" smooth="yes"/>
      <point x="119" y="64"/>
      <point x="122" y="23"/>
      <point x="92" y="25" type="curve"/>
      <point x="30" y="23" type="line"/>
      <point x="31" y="4" type="line"/>
      <point x="98" y="4" type="line" smooth="yes"/>
      <point x="161" y="4"/>
      <point x="229" y="2"/>
      <point x="293" y="2" type="curve" smooth="yes"/>
      <point x="506" y="2"/>
      <point x="540" y="138"/>
      <point x="540" y="220" type="curve" smooth="yes"/>
      <point x="540" y="242" type="line" smooth="yes"/>
      <point x="540" y="474"/>
      <point x="315" y="452"/>
      <point x="147" y="457" type="curve"/>
      <point x="147" y="568" type="line" smooth="yes"/>
      <point x="147" y="600"/>
      <point x="148" y="633"/>
      <point x="148" y="665" type="curve" smooth="yes"/>
      <point x="148" y="682"/>
      <point x="158" y="692"/>
    </contour>
    <contour>
      <point x="148" y="25" type="line"/>
      <point x="148" y="288" type="line"/>
      <point x="148" y="434" type="line"/>
      <point x="303" y="432" type="line" smooth="yes"/>
      <point x="428" y="430"/>
      <point x="513" y="355"/>
      <point x="513" y="235" type="curve" smooth="yes"/>
      <point x="513" y="179"/>
      <point x="506" y="25"/>
      <point x="286" y="25" type="curve" smooth="yes"/>
    </contour>
    <contour>
      <point x="672" y="657" type="curve"/>
      <point x="675" y="532"/>
      <point x="675" y="445"/>
      <point x="677" y="323" type="curve" smooth="yes"/>
      <point x="679" y="205" type="line" smooth="yes"/>
      <point x="680" y="146"/>
      <point x="678" y="120"/>
      <point x="679" y="62" type="curve" smooth="yes"/>
      <point x="680" y="35"/>
      <point x="666" y="23"/>
      <point x="640" y="24" type="curve" smooth="yes"/>
      <point x="568" y="25" type="line"/>
      <point x="568" y="6" type="line"/>
      <point x="617" y="3"/>
      <point x="652" y="3"/>
      <point x="687" y="3" type="curve" smooth="yes"/>
      <point x="745" y="3" type="line" smooth="yes"/>
      <point x="765" y="3"/>
      <point x="791" y="4"/>
      <point x="817" y="4" type="curve"/>
      <point x="816" y="24" type="line"/>
      <point x="746" y="24" type="line" smooth="yes"/>
      <point x="722" y="25"/>
      <point x="709" y="37"/>
      <point x="707" y="63" type="curve"/>
      <point x="706" y="264"/>
      <point x="705" y="455"/>
      <point x="705" y="657" type="curve" smooth="yes"/>
      <point x="705" y="674"/>
      <point x="710" y="690"/>
      <point x="730" y="690" type="curve"/>
      <point x="817" y="695" type="line"/>
      <point x="816" y="702"/>
      <point x="816" y="708"/>
      <point x="816" y="715" type="curve"/>
      <point x="547" y="711" type="line"/>
      <point x="549" y="690" type="line"/>
      <point x="568" y="690"/>
      <point x="613" y="690"/>
      <point x="632" y="690" type="curve" smooth="yes"/>
      <point x="661" y="690"/>
      <point x="670" y="680"/>
    </contour>
  </outline>
</glyph>
<glyph name="afii10079" format="2">
  <advance width="712"/>
  <unicode hex="043D"/>
  <outline>
    <contour>
      <point x="20" y="705" type="line"/>
      <point x="21" y="680" type="line"/>
      <point x="90" y="680" type="line" smooth="yes"/>
      <point x="125" y="680"/>
      <point x="128" y="670"/>
      <point x="128" y="660" type="curve" smooth="yes"/>
      <point x="128" y="648"/>
      <point x="136" y="408"/>
      <point x="136" y="209" type="curve" smooth="yes"/>
      <point x="136" y="126"/>
      <point x="138" y="40"/>
      <point x="137" y="40" type="curve"/>
      <point x="138" y="28"/>
      <point x="134" y="17"/>
      <point x="108" y="17" type="curve" smooth="yes"/>
      <point x="39" y="19" type="line"/>
      <point x="38" y="-2" type="line"/>
      <point x="53" y="-3"/>
      <point x="83" y="-3"/>
      <point x="114" y="-3" type="curve" smooth="yes"/>
      <point x="175" y="-3"/>
      <point x="248" y="-2"/>
      <point x="262" y="-2" type="curve"/>
      <point x="264" y="18" type="line"/>
      <point x="234" y="18"/>
      <point x="212" y="20"/>
      <point x="182" y="20" type="curve" smooth="yes"/>
      <point x="168" y="20"/>
      <point x="163" y="20"/>
      <point x="163" y="41" type="curve" smooth="yes"/>
      <point x="163" y="91"/>
      <point x="163" y="335"/>
      <point x="164" y="337" type="curve"/>
      <point x="181" y="339"/>
      <point x="570" y="340"/>
      <point x="565" y="340" type="curve"/>
      <point x="568" y="50" type="line" smooth="yes"/>
      <point x="568" y="40"/>
      <point x="568" y="22"/>
      <point x="540" y="21" type="curve" smooth="yes"/>
      <point x="518" y="20"/>
      <point x="489" y="20"/>
      <point x="467" y="20" type="curve"/>
      <point x="467" y="0" type="line"/>
      <point x="692" y="0" type="line"/>
      <point x="691" y="6"/>
      <point x="691" y="20"/>
      <point x="691" y="24" type="curve"/>
      <point x="628" y="24" type="line"/>
      <point x="614" y="23"/>
      <point x="599" y="24"/>
      <point x="598" y="46" type="curve" smooth="yes"/>
      <point x="594" y="201" type="line"/>
      <point x="592" y="335" type="line" smooth="yes"/>
      <point x="591" y="425"/>
      <point x="587" y="516"/>
      <point x="587" y="602" type="curve" smooth="yes"/>
      <point x="587" y="633"/>
      <point x="587" y="667"/>
      <point x="588" y="667" type="curve"/>
      <point x="588" y="680"/>
      <point x="598" y="687"/>
      <point x="616" y="687" type="curve" smooth="yes"/>
      <point x="686" y="688" type="line"/>
      <point x="686" y="696"/>
      <point x="685" y="701"/>
      <point x="685" y="708" type="curve"/>
      <point x="452" y="711" type="line"/>
      <point x="452" y="690" type="line"/>
      <point x="533" y="687" type="line" smooth="yes"/>
      <point x="556" y="687"/>
      <point x="561" y="678"/>
      <point x="562" y="666" type="curve" smooth="yes"/>
      <point x="564" y="641"/>
      <point x="563" y="494"/>
      <point x="563" y="411" type="curve" smooth="yes"/>
      <point x="563" y="364" type="line"/>
      <point x="556" y="363"/>
      <point x="517" y="363"/>
      <point x="467" y="363" type="curve" smooth="yes"/>
      <point x="165" y="363" type="line"/>
      <point x="161" y="386"/>
      <point x="160" y="660"/>
      <point x="160" y="660" type="curve"/>
      <point x="160" y="670"/>
      <point x="162" y="680"/>
      <point x="188" y="680" type="curve" smooth="yes"/>
      <point x="223" y="680"/>
      <point x="280" y="684"/>
      <point x="281" y="684" type="curve"/>
      <point x="281" y="689"/>
      <point x="281" y="702"/>
      <point x="282" y="707" type="curve"/>
    </contour>
  </outline>
</glyph>
<glyph name="afii10088" format="2">
  <advance width="679"/>
  <unicode hex="0446"/>
  <outline>
    <contour>
      <point x="584" y="20" type="line" smooth="yes"/>
      <point x="564" y="20"/>
      <point x="555" y="30"/>
      <point x="555" y="40" type="curve" smooth="yes"/>
      <point x="555" y="91"/>
      <point x="556" y="468"/>
      <point x="556" y="607" type="curve" smooth="yes"/>
      <point x="556" y="657" type="line" smooth="yes"/>
      <point x="556" y="674"/>
      <point x="563" y="680"/>
      <point x="579" y="680" type="curve" smooth="yes"/>
      <point x="598" y="680"/>
      <point x="623" y="680"/>
      <point x="646" y="680" type="curve"/>
      <point x="648" y="703" type="line"/>
      <point x="508" y="703" type="line" smooth="yes"/>
      <point x="479" y="703"/>
      <point x="448" y="704"/>
      <point x="420" y="704" type="curve"/>
      <point x="420" y="682" type="line"/>
      <point x="501" y="680" type="line" smooth="yes"/>
      <point x="517" y="680"/>
      <point x="525" y="673"/>
      <point x="526" y="657" type="curve"/>
      <point x="525" y="612"/>
      <point x="527" y="580"/>
      <point x="527" y="535" type="curve" smooth="yes"/>
      <point x="530" y="19" type="line"/>
      <point x="532" y="21"/>
      <point x="183" y="20"/>
      <point x="151" y="23" type="curve"/>
      <point x="143" y="660" type="line" smooth="yes"/>
      <point x="143" y="675"/>
      <point x="153" y="683"/>
      <point x="175" y="683" type="curve" smooth="yes"/>
      <point x="251" y="683" type="line"/>
      <point x="250" y="685"/>
      <point x="250" y="703"/>
      <point x="249" y="705" type="curve"/>
      <point x="236" y="705"/>
      <point x="156" y="707"/>
      <point x="90" y="707" type="curve" smooth="yes"/>
      <point x="62" y="707"/>
      <point x="35" y="706"/>
      <point x="22" y="706" type="curve"/>
      <point x="20" y="682" type="line"/>
      <point x="27" y="682"/>
      <point x="78" y="682"/>
      <point x="86" y="682" type="curve" smooth="yes"/>
      <point x="116" y="682"/>
      <point x="115" y="672"/>
      <point x="115" y="657" type="curve" smooth="yes"/>
      <point x="119" y="241" type="line"/>
      <point x="120" y="50" type="line" smooth="yes"/>
      <point x="120" y="30"/>
      <point x="103" y="22"/>
      <point x="85" y="22" type="curve"/>
      <point x="85" y="22"/>
      <point x="36" y="22"/>
      <point x="23" y="22" type="curve"/>
      <point x="23" y="14"/>
      <point x="22" y="6"/>
      <point x="22" y="0" type="curve"/>
      <point x="72" y="0"/>
      <point x="124" y="-1"/>
      <point x="174" y="-1" type="curve" smooth="yes"/>
      <point x="545" y="-4" type="line"/>
      <point x="581" y="-5" type="line" smooth="yes"/>
      <point x="603" y="-5"/>
      <point x="621" y="-10"/>
      <point x="623" y="-34" type="curve" smooth="yes"/>
      <point x="628" y="-163" type="line"/>
      <point x="632" y="-164"/>
      <point x="644" y="-164"/>
      <point x="649" y="-164" type="curve"/>
      <point x="649" y="20" type="line"/>
    </contour>
  </outline>
</glyph>
<glyph name="afii61352" format="2">
  <advance width="1053"/>
  <unicode hex="2116"/>
  <outline>
    <contour>
      <point x="570" y="50" type="curve"/>
      <point x="362" y="366" type="line" smooth="yes"/>
      <point x="288" y="478"/>
      <point x="214" y="591"/>
      <point x="144" y="699" type="curve"/>
      <point x="103" y="699"/>
      <point x="62" y="700"/>
      <point x="20" y="700" type="curve"/>
      <point x="20" y="678" type="line"/>
      <point x="77" y="680" type="line" smooth="yes"/>
      <point x="96" y="681"/>
      <point x="112" y="674"/>
      <point x="116" y="650" type="curve"/>
      <point x="119" y="542"/>
      <point x="121" y="459"/>
      <point x="122" y="354" type="curve" smooth="yes"/>
      <point x="125" y="60" type="line" smooth="yes"/>
      <point x="125" y="34"/>
      <point x="117" y="21"/>
      <point x="92" y="20" type="curve" smooth="yes"/>
      <point x="81" y="20"/>
      <point x="51" y="20"/>
      <point x="33" y="20" type="curve"/>
      <point x="33" y="13"/>
      <point x="32" y="6"/>
      <point x="32" y="0" type="curve"/>
      <point x="105" y="0"/>
      <point x="183" y="0"/>
      <point x="256" y="-1" type="curve"/>
      <point x="256" y="20" type="line"/>
      <point x="256" y="20"/>
      <point x="202" y="17"/>
      <point x="179" y="20" type="curve" smooth="yes"/>
      <point x="162" y="22"/>
      <point x="152" y="38"/>
      <point x="152" y="59" type="curve" smooth="yes"/>
      <point x="152" y="209"/>
      <point x="137" y="632"/>
      <point x="139" y="658" type="curve"/>
      <point x="343" y="344" type="line"/>
      <point x="571" y="-1" type="line"/>
      <point x="593" y="-1" type="line"/>
      <point x="589" y="225"/>
      <point x="582" y="419"/>
      <point x="582" y="643" type="curve" smooth="yes"/>
      <point x="582" y="665"/>
      <point x="590" y="673"/>
      <point x="612" y="675" type="curve" smooth="yes"/>
      <point x="641" y="677"/>
      <point x="685" y="679"/>
      <point x="686" y="679" type="curve"/>
      <point x="686" y="701" type="line"/>
      <point x="460" y="699" type="line"/>
      <point x="460" y="678" type="line"/>
      <point x="517" y="676" type="line" smooth="yes"/>
      <point x="545" y="676"/>
      <point x="557" y="660"/>
      <point x="557" y="644" type="curve" smooth="yes"/>
      <point x="557" y="412"/>
      <point x="567" y="250"/>
    </contour>
    <contour>
      <point x="852" y="714" type="curve" smooth="yes"/>
      <point x="849" y="714" type="line" smooth="yes"/>
      <point x="762" y="714"/>
      <point x="687" y="653"/>
      <point x="687" y="542" type="curve" smooth="yes"/>
      <point x="687" y="422"/>
      <point x="743" y="351"/>
      <point x="849" y="351" type="curve" smooth="yes"/>
      <point x="971" y="351"/>
      <point x="1013" y="449"/>
      <point x="1013" y="540" type="curve" smooth="yes"/>
      <point x="1013" y="639"/>
      <point x="952" y="715"/>
      <point x="862" y="714" type="curve" smooth="yes"/>
      <point x="858" y="714"/>
      <point x="855" y="714"/>
    </contour>
    <contour>
      <point x="713" y="544" type="curve" smooth="yes"/>
      <point x="713" y="619"/>
      <point x="752" y="690"/>
      <point x="855" y="695" type="curve" smooth="yes"/>
      <point x="912" y="698"/>
      <point x="991" y="653"/>
      <point x="991" y="542" type="curve"/>
      <point x="984" y="417"/>
      <point x="933" y="373"/>
      <point x="846" y="373" type="curve" smooth="yes"/>
      <point x="719" y="373"/>
      <point x="712" y="495"/>
    </contour>
    <contour>
      <point x="710" y="248" type="line"/>
      <point x="906" y="251" type="line" smooth="yes"/>
      <point x="938" y="251"/>
      <point x="973" y="251"/>
      <point x="1005" y="252" type="curve"/>
      <point x="1005" y="273" type="line"/>
      <point x="973" y="272"/>
      <point x="938" y="272"/>
      <point x="906" y="272" type="curve" smooth="yes"/>
      <point x="710" y="269" type="line"/>
    </contour>
  </outline>
</glyph>
